<?xml version="1.0" encoding="utf-8"?>
<!-- Generator: Adobe Illustrator 16.0.0, SVG Export Plug-In . SVG Version: 6.00 Build 0)  -->
<!DOCTYPE svg PUBLIC "-//W3C//DTD SVG 1.1//EN" "http://www.w3.org/Graphics/SVG/1.1/DTD/svg11.dtd">
<svg version="1.1" id="Layer_1" xmlns="http://www.w3.org/2000/svg" xmlns:xlink="http://www.w3.org/1999/xlink" x="0px" y="0px"
	 width="381.667px" height="79.666px" viewBox="0 0 381.667 79.666" enable-background="new 0 0 381.667 79.666"
	 xml:space="preserve">
<path fill="#4C4B4C" d="M149.625,44.235c0,4.806-0.772,8.702-1.725,8.702H98.1c-0.953,0-1.725-3.896-1.725-8.702V14.14
	c0-4.807,0.771-8.702,1.725-8.702H147.9c0.952,0,1.725,3.896,1.725,8.702V44.235z"/>
<path fill="#3D3D3D" d="M381.667,59.355c0,8.916-5.205,16.145-11.623,16.145H11.624C5.204,75.5,0,68.271,0,59.355V35.142
	c0-8.916,5.204-16.143,11.624-16.143h358.42c6.418,0,11.623,7.227,11.623,16.143V59.355z"/>
<path fill="#4C4B4C" d="M373.833,41.215c0,4.806-0.772,8.702-1.725,8.702h-49.801c-0.953,0-1.725-3.896-1.725-8.702V11.119
	c0-4.807,0.771-8.702,1.725-8.702h49.801c0.952,0,1.725,3.896,1.725,8.702V41.215z"/>
<path fill="#CC1F4F" d="M276.666,14.838c0,1.838-1.387,3.328-3.098,3.328h-89.47c-1.711,0-3.099-1.49-3.099-3.328V3.328
	C181,1.49,182.387,0,184.099,0h89.47c1.711,0,3.098,1.49,3.098,3.328V14.838z"/>
<path fill="#4C4B4C" d="M77.5,37.441c0,4.266-0.233,7.725-0.521,7.725H61.938c-0.288,0-0.521-3.459-0.521-7.725V10.725
	C61.417,6.458,66.232,3,66.521,3h5.438c0.288,0,5.542,3.458,5.542,7.725V37.441z"/>
<path fill="#3F4040" d="M334.583,40.215c0,4.806-3.188,8.702-7.117,8.702H121.951c-3.931,0-7.118-3.896-7.118-8.702V10.119
	c0-4.806,3.187-8.702,7.118-8.702h205.515c3.93,0,7.117,3.896,7.117,8.702V40.215z"/>
<path fill="#4C4B4C" d="M50.333,37.191c0,4.266-0.233,7.725-0.521,7.725H34.771c-0.288,0-0.521-3.459-0.521-7.725V10.475
	c0-4.267,0.233-7.725,0.521-7.725h15.041c0.288,0,0.521,3.458,0.521,7.725V37.191z"/>
<path fill="#545554" d="M72.099,3.544c0-0.309-0.075-0.56-0.166-0.56h-5.418c-0.091,0-0.166,0.25-0.166,0.56l0,0
	c0,0.309,0.074,0.56,0.166,0.56h5.418C72.024,4.104,72.099,3.853,72.099,3.544L72.099,3.544z"/>
<path fill="#474748" d="M376.333,67.666c0,6.627-5.373,12-12,12h-346.5c-6.627,0-12-5.373-12-12v-41.5c0-6.627,5.373-12,12-12h346.5
	c6.627,0,12,5.373,12,12V67.666z"/>
<line fill="none" stroke="#3D3D3D" stroke-width="2" stroke-miterlimit="10" x1="5.833" y1="57.5" x2="376.333" y2="57.5"/>
<path fill="#545554" d="M372.896,18.5c0-2.393-4.687-4.333-10.467-4.333H19.8c-5.781,0-10.467,1.94-10.467,4.333l0,0
	c0,2.393,4.686,4.333,10.467,4.333h342.628C368.209,22.833,372.896,20.893,372.896,18.5L372.896,18.5z"/>
<line fill="none" stroke="#D71F26" stroke-miterlimit="10" x1="69.458" y1="7.875" x2="69.458" y2="4.104"/>
<path fill="#3D3D3D" d="M347.208,57.5c0,5.867-4.757,10.625-10.625,10.625h-76.958C253.757,68.125,249,63.367,249,57.5l0,0
	c0-5.869,4.757-10.625,10.625-10.625h76.958C342.451,46.875,347.208,51.631,347.208,57.5L347.208,57.5z"/>
<path fill="#545554" d="M347.208,59.041c0,5.04-4.757,9.125-10.625,9.125h-76.958c-5.868,0-10.625-4.085-10.625-9.125l0,0
	c0-5.039,4.757-9.124,10.625-9.124h76.958C342.451,49.917,347.208,54.002,347.208,59.041L347.208,59.041z"/>
<path fill="#3D3D3D" d="M295.333,57.885c0,3.285-2.663,5.947-5.947,5.947h-23.771c-3.284,0-5.947-2.662-5.947-5.947l0,0
	c0-3.285,2.663-5.947,5.947-5.947h23.771C292.67,51.938,295.333,54.6,295.333,57.885L295.333,57.885z"/>
<path fill="#3D3D3D" d="M338.416,57.885c0,3.285-2.663,5.947-5.947,5.947h-23.771c-3.284,0-5.947-2.662-5.947-5.947l0,0
	c0-3.285,2.663-5.947,5.947-5.947h23.771C335.753,51.938,338.416,54.6,338.416,57.885L338.416,57.885z"/>
<g>
	<ellipse fill="#CBB62D" cx="265.53" cy="56.42" rx="1.782" ry="1.871"/>
	<ellipse fill="#CBB62D" cx="277.296" cy="56.42" rx="1.782" ry="1.871"/>
	<ellipse fill="#CBB62D" cx="271.413" cy="56.42" rx="1.782" ry="1.871"/>
	<ellipse fill="#CBB62D" cx="283.18" cy="56.42" rx="1.782" ry="1.871"/>
	<ellipse fill="#CBB62D" cx="289.063" cy="56.42" rx="1.782" ry="1.871"/>
	<ellipse fill="#CBB62D" cx="268.716" cy="60.676" rx="1.782" ry="1.871"/>
	<ellipse fill="#CBB62D" cx="274.693" cy="60.676" rx="1.782" ry="1.871"/>
	<ellipse fill="#CBB62D" cx="280.672" cy="60.676" rx="1.782" ry="1.871"/>
	<ellipse fill="#CBB62D" cx="286.649" cy="60.676" rx="1.782" ry="1.871"/>
</g>
<g>
	<ellipse fill="#CBB62D" cx="308.269" cy="56.678" rx="1.782" ry="1.87"/>
	<ellipse fill="#CBB62D" cx="320.034" cy="56.678" rx="1.782" ry="1.87"/>
	<ellipse fill="#CBB62D" cx="314.151" cy="56.678" rx="1.782" ry="1.87"/>
	<ellipse fill="#CBB62D" cx="325.918" cy="56.678" rx="1.782" ry="1.87"/>
	<ellipse fill="#CBB62D" cx="331.801" cy="56.678" rx="1.782" ry="1.87"/>
	<ellipse fill="#CBB62D" cx="311.454" cy="60.934" rx="1.782" ry="1.869"/>
	<ellipse fill="#CBB62D" cx="317.432" cy="60.934" rx="1.782" ry="1.869"/>
	<ellipse fill="#CBB62D" cx="323.41" cy="60.934" rx="1.782" ry="1.869"/>
	<ellipse fill="#CBB62D" cx="329.388" cy="60.934" rx="1.782" ry="1.869"/>
</g>
<ellipse fill="#DBDBDA" cx="37.75" cy="57.5" rx="3.5" ry="3.332"/>
<ellipse fill="#3D3D3D" cx="37.75" cy="57.5" rx="2.581" ry="2.457"/>
<path fill="#545554" d="M47.479,3.146c0-0.219-0.134-0.397-0.299-0.397h-9.777c-0.165,0-0.299,0.178-0.299,0.397l0,0
	c0,0.22,0.134,0.397,0.299,0.397h9.777C47.345,3.544,47.479,3.366,47.479,3.146L47.479,3.146z"/>
<line fill="none" stroke="#DF2230" stroke-miterlimit="10" x1="69.458" y1="4.104" x2="69.458" y2="2.984"/>
</svg>
