<?xml version="1.0" encoding="utf-8"?>
<!-- Generator: Adobe Illustrator 16.0.0, SVG Export Plug-In . SVG Version: 6.00 Build 0)  -->
<!DOCTYPE svg PUBLIC "-//W3C//DTD SVG 1.1//EN" "http://www.w3.org/Graphics/SVG/1.1/DTD/svg11.dtd">
<svg version="1.1" id="Layer_1" xmlns="http://www.w3.org/2000/svg" xmlns:xlink="http://www.w3.org/1999/xlink" x="0px" y="0px"
	 width="163.292px" height="104.5px" viewBox="0 0 163.292 104.5" enable-background="new 0 0 163.292 104.5" xml:space="preserve">
<g>
	<path fill="#3D3D3D" d="M163.292,92.5c0,6.627-5.373,12-12,12H12c-6.628,0-12-5.373-12-12V12C0,5.373,5.373,0,12,0h139.291
		c6.627,0,12,5.373,12,12V92.5z"/>
	<path fill="#545554" d="M28.021,78.125c0,1.726-1.399,3.125-3.125,3.125l0,0c-1.726,0-3.125-1.399-3.125-3.125v-75
		C21.771,1.399,23.17,0,24.896,0l0,0c1.726,0,3.125,1.399,3.125,3.125V78.125z"/>
	<path fill="#545554" d="M141.105,78.125c0,1.726-1.398,3.125-3.125,3.125l0,0c-1.727,0-3.125-1.399-3.125-3.125v-75
		c0-1.726,1.398-3.125,3.125-3.125l0,0c1.727,0,3.125,1.399,3.125,3.125V78.125z"/>
	<path fill="#545554" d="M1.59,6.185c2.066-3.619,5.963-6.06,10.428-6.06H151.31c4.439,0,8.316,2.412,10.393,5.996"/>
	<g>
		<rect x="23.896" fill="#62459A" width="115.5" height="81.25"/>
		<rect x="23.896" y="0.125" fill="#6653A2" width="115.5" height="6.06"/>
	</g>
</g>
</svg>
