<?xml version="1.0" encoding="utf-8"?>
<!-- Generator: Adobe Illustrator 16.0.0, SVG Export Plug-In . SVG Version: 6.00 Build 0)  -->
<!DOCTYPE svg PUBLIC "-//W3C//DTD SVG 1.1//EN" "http://www.w3.org/Graphics/SVG/1.1/DTD/svg11.dtd">
<svg version="1.1" id="Layer_1" xmlns="http://www.w3.org/2000/svg" xmlns:xlink="http://www.w3.org/1999/xlink" x="0px" y="0px"
	 width="162.336px" height="124.25px" viewBox="0 0 162.336 124.25" enable-background="new 0 0 162.336 124.25"
	 xml:space="preserve">
<path fill="#D1D1D1" d="M162.336,110.446c0,7.623-3.708,13.804-8.28,13.804H8.281C3.708,124.25,0,118.069,0,110.446V21.011
	C0,13.387,3.708,7.208,8.281,7.208h145.775c4.572,0,8.28,6.18,8.28,13.804V110.446z"/>
<line fill="none" stroke="#9D9D9D" stroke-miterlimit="10" x1="0" y1="25.75" x2="162.336" y2="25.75"/>
<line fill="none" stroke="#9D9D9D" stroke-miterlimit="10" x1="0" y1="43.25" x2="162.336" y2="43.25"/>
<line fill="none" stroke="#9D9D9D" stroke-miterlimit="10" x1="0" y1="61.25" x2="162.336" y2="61.25"/>
<line fill="none" stroke="#9D9D9D" stroke-miterlimit="10" x1="0" y1="80.5" x2="162.336" y2="80.5"/>
<path fill="#DDDDDC" d="M148.586,109.596c0,8.094-3.08,14.654-6.878,14.654H20.628c-3.798,0-6.878-6.561-6.878-14.654V14.653
	C13.75,6.561,16.83,0,20.628,0h121.08c3.798,0,6.878,6.561,6.878,14.653V109.596z"/>
<line fill="none" stroke="#9D9D9D" stroke-miterlimit="10" x1="0" y1="100.75" x2="162.336" y2="100.75"/>
<path fill="#D1D1D1" d="M132.461,117.908c0,3.502-2.344,6.342-5.232,6.342H35.108c-2.89,0-5.233-2.84-5.233-6.342V76.82
	c0-3.503,2.343-6.342,5.233-6.342h92.121c2.889,0,5.232,2.839,5.232,6.342V117.908z"/>
<path d="M131.211,47.43c0,3.502-2.344,6.342-5.232,6.342H33.858c-2.89,0-5.233-2.84-5.233-6.342V6.342
	C28.625,2.839,30.968,0,33.858,0h92.121c2.889,0,5.232,2.839,5.232,6.342V47.43z"/>
<path fill="#D1D1D1" stroke="#9D9D9D" stroke-miterlimit="10" d="M132.461,117.908c0,3.502-2.344,6.342-5.232,6.342H35.108
	c-2.89,0-5.233-2.84-5.233-6.342V76.82c0-3.503,2.343-6.342,5.233-6.342h92.121c2.889,0,5.232,2.839,5.232,6.342V117.908z"/>
<path fill="#D1D1D1" stroke="#D1D1D1" stroke-miterlimit="10" d="M132.461,118.308c0,3.281-2.344,5.942-5.232,5.942H35.108
	c-2.89,0-5.233-2.661-5.233-5.942V79.807c0-3.282,2.343-5.942,5.233-5.942h92.121c2.889,0,5.232,2.66,5.232,5.942V118.308z"/>
<polygon fill="#9D9E9E" points="95.428,103.479 96.095,103.479 96.095,70.479 95.428,70.479 94.688,86.945 94.688,86.945 "/>
<line fill="none" stroke="#DDDDDC" stroke-miterlimit="10" x1="67.352" y1="70.979" x2="67.519" y2="103.979"/>
<g>
	<line fill="none" stroke="#9C9C9C" stroke-miterlimit="10" x1="6.656" y1="118.461" x2="9.094" y2="121.164"/>
	<line fill="none" stroke="#9C9C9C" stroke-miterlimit="10" x1="9.094" y1="118.461" x2="6.656" y2="121.164"/>
</g>
<g>
	<line fill="none" stroke="#9C9C9C" stroke-miterlimit="10" x1="153.781" y1="118.481" x2="156.219" y2="121.185"/>
	<line fill="none" stroke="#9C9C9C" stroke-miterlimit="10" x1="156.219" y1="118.481" x2="153.781" y2="121.185"/>
</g>
</svg>
