<?xml version="1.0" encoding="utf-8"?>
<!-- Generator: Adobe Illustrator 16.0.0, SVG Export Plug-In . SVG Version: 6.00 Build 0)  -->
<!DOCTYPE svg PUBLIC "-//W3C//DTD SVG 1.1//EN" "http://www.w3.org/Graphics/SVG/1.1/DTD/svg11.dtd">
<svg version="1.1" id="Layer_1" xmlns="http://www.w3.org/2000/svg" xmlns:xlink="http://www.w3.org/1999/xlink" x="0px" y="0px"
	 width="292.25px" height="117.878px" viewBox="0 0 292.25 117.878" enable-background="new 0 0 292.25 117.878"
	 xml:space="preserve">
<path fill="#9D9E9E" stroke="#A0A09F" stroke-miterlimit="10" d="M287.226,106.516c0,1.454-6.46,2.632-14.432,2.632H18.741
	c-7.971,0-14.432-1.178-14.432-2.632V89.464c0-1.453,6.461-2.631,14.432-2.631h254.053c7.972,0,14.432,1.178,14.432,2.631V106.516z"
	/>
<ellipse fill="#9D9E9E" stroke="#A0A09F" stroke-miterlimit="10" cx="17.617" cy="106.495" rx="10.007" ry="8.506"/>
<ellipse fill="#9D9E9E" stroke="#A0A09F" stroke-miterlimit="10" cx="37.061" cy="106.937" rx="10.007" ry="8.506"/>
<ellipse fill="#9D9E9E" stroke="#A0A09F" stroke-miterlimit="10" cx="57.074" cy="107.377" rx="10.007" ry="8.505"/>
<ellipse fill="#9D9E9E" stroke="#A0A09F" stroke-miterlimit="10" cx="77.087" cy="107.156" rx="10.007" ry="8.505"/>
<ellipse fill="#9D9E9E" stroke="#A0A09F" stroke-miterlimit="10" cx="97.1" cy="107.597" rx="10.007" ry="8.506"/>
<ellipse fill="#9D9E9E" stroke="#A0A09F" stroke-miterlimit="10" cx="117.114" cy="108.047" rx="10.007" ry="8.505"/>
<ellipse fill="#9D9E9E" stroke="#A0A09F" stroke-miterlimit="10" cx="137.127" cy="108.487" rx="10.007" ry="8.505"/>
<ellipse fill="#9D9E9E" stroke="#A0A09F" stroke-miterlimit="10" cx="157.14" cy="107.821" rx="10.007" ry="8.506"/>
<ellipse fill="#9D9E9E" stroke="#A0A09F" stroke-miterlimit="10" cx="177.153" cy="108.263" rx="10.007" ry="8.505"/>
<ellipse fill="#9D9E9E" stroke="#A0A09F" stroke-miterlimit="10" cx="197.167" cy="108.712" rx="10.006" ry="8.506"/>
<ellipse fill="#9D9E9E" stroke="#A0A09F" stroke-miterlimit="10" cx="217.179" cy="109.153" rx="10.006" ry="8.504"/>
<ellipse fill="#9D9E9E" stroke="#A0A09F" stroke-miterlimit="10" cx="237.192" cy="108.483" rx="10.007" ry="8.505"/>
<ellipse fill="#9D9E9E" stroke="#A0A09F" stroke-miterlimit="10" cx="257.206" cy="108.923" rx="10.006" ry="8.506"/>
<ellipse fill="#9D9E9E" stroke="#A0A09F" stroke-miterlimit="10" cx="275.51" cy="109.374" rx="10.006" ry="8.504"/>
<path fill="#DDDDDC" d="M286.625,72.401c0,5.348-6.418,9.682-14.333,9.682H19.959c-7.917,0-14.334-4.334-14.334-9.682V9.681
	C5.625,4.334,12.042,0,19.959,0h252.333c7.915,0,14.333,4.334,14.333,9.681V72.401z"/>
<path fill="#BFBEBE" d="M292.25,35.594c0,1.65-6.674,2.988-14.907,2.988H14.908C6.674,38.583,0,37.245,0,35.594V16.236
	c0-1.649,6.674-2.987,14.908-2.987h262.435c8.233,0,14.907,1.338,14.907,2.987V35.594z"/>
<path fill="#D1D1D1" d="M292.25,96.244c0,5.341-6.675,9.671-14.907,9.671H14.908C6.674,105.915,0,101.585,0,96.244V33.586
	c0-5.341,6.674-9.671,14.908-9.671h262.435c8.232,0,14.907,4.33,14.907,9.671V96.244z"/>
<line fill="none" stroke="#9D9D9D" stroke-miterlimit="10" x1="0" y1="64.915" x2="292.25" y2="64.915"/>
<path fill="#D1D1D1" d="M113.75,75.518c0,1.808-1.878,3.272-4.195,3.272H35.695c-2.317,0-4.195-1.465-4.195-3.272V54.313
	c0-1.807,1.878-3.272,4.195-3.272h73.859c2.317,0,4.195,1.465,4.195,3.272V75.518z"/>
<path fill="#D1D1D1" d="M262,75.518c0,1.808-1.879,3.272-4.195,3.272h-73.859c-2.316,0-4.195-1.465-4.195-3.272V54.313
	c0-1.807,1.879-3.272,4.195-3.272h73.859c2.316,0,4.195,1.465,4.195,3.272V75.518z"/>
<g>
	<path fill="#9D9E9E" d="M88.853,71.171c0,1.066-1.041,1.932-2.325,1.932H45.593c-1.284,0-2.325-0.865-2.325-1.932V58.659
		c0-1.066,1.042-1.931,2.325-1.931h40.935c1.284,0,2.325,0.865,2.325,1.931V71.171z"/>
	<ellipse fill="#9D9E9E" cx="87.304" cy="64.915" rx="14.678" ry="8.188"/>
</g>
<g>
	<path fill="#9D9E9E" d="M205.96,71.171c0,1.066,1.041,1.932,2.325,1.932h40.934c1.284,0,2.326-0.865,2.326-1.932V58.659
		c0-1.066-1.042-1.931-2.326-1.931h-40.934c-1.284,0-2.325,0.865-2.325,1.931V71.171z"/>
	<ellipse fill="#9D9E9E" cx="207.509" cy="64.915" rx="14.679" ry="8.188"/>
</g>
<polygon fill="#9D9E9E" points="113.75,105.915 111.125,105.915 111.125,23.915 113.75,23.915 116.667,64.832 116.667,64.832 "/>
<path fill="#984599" d="M111.125,12.571c0,0.375-1.819,0.678-4.062,0.678H35.562c-2.243,0-4.062-0.303-4.062-0.678V8.179
	c0-0.375,1.818-0.678,4.062-0.678h71.501c2.243,0,4.062,0.303,4.062,0.678V12.571z"/>
<path fill="#984599" d="M262,12.571c0,0.375-1.818,0.678-4.063,0.678h-71.501c-2.243,0-4.062-0.303-4.062-0.678V8.179
	c0-0.375,1.818-0.678,4.062-0.678h71.501c2.244,0,4.063,0.303,4.063,0.678V12.571z"/>
<path fill="#B477B1" d="M259.625,9.87c0,0.175-1.722,0.316-3.846,0.316h-67.684c-2.125,0-3.846-0.142-3.846-0.316V7.817
	c0-0.175,1.721-0.316,3.846-0.316h67.684c2.124,0,3.846,0.142,3.846,0.316V9.87z"/>
<path fill="#B477B1" d="M109,9.87c0,0.175-1.722,0.316-3.846,0.316H37.47c-2.124,0-3.845-0.142-3.845-0.316V7.817
	c0-0.175,1.721-0.316,3.845-0.316h67.684c2.124,0,3.846,0.142,3.846,0.316V9.87z"/>
<polygon fill="#9D9E9E" points="182.666,105.915 185.291,105.915 185.291,23.915 182.666,23.915 179.75,64.832 179.75,64.832 "/>
<g>
	<path fill="#DDDDDC" d="M51.341,67.567c0,0.451,0.337,0.818,0.751,0.818H65.31c0.415,0,0.75-0.367,0.75-0.818v-5.304
		c0-0.452-0.336-0.818-0.75-0.818H52.092c-0.414,0-0.751,0.366-0.751,0.818V67.567z"/>
	<ellipse fill="#DDDDDC" cx="51.842" cy="64.915" rx="4.74" ry="3.471"/>
</g>
<circle fill="#9D9E9E" cx="12.083" cy="64.915" r="2.583"/>
<path fill="#DDDDDC" d="M97,64.915c0,1.916-1.787,3.471-3.991,3.471H73.242c-2.205,0-3.992-1.555-3.992-3.471l0,0
	c0-1.916,1.787-3.47,3.992-3.47h19.767C95.213,61.445,97,62.999,97,64.915L97,64.915z"/>
<ellipse fill="#020202" cx="51.092" cy="64.915" rx="2.063" ry="1.979"/>
<ellipse fill="#020202" cx="56.607" cy="64.915" rx="2.063" ry="1.979"/>
<ellipse fill="#020202" cx="74.375" cy="64.915" rx="2.063" ry="1.979"/>
<ellipse fill="#020202" cx="80.208" cy="64.915" rx="2.063" ry="1.979"/>
<ellipse fill="#020202" cx="85.75" cy="64.915" rx="2.063" ry="1.979"/>
<ellipse fill="#020202" cx="62.123" cy="64.915" rx="2.063" ry="1.979"/>
<ellipse fill="#020202" cx="91.478" cy="64.915" rx="2.063" ry="1.979"/>
<g>
	<path fill="#DDDDDC" d="M244.22,67.567c0,0.451-0.336,0.818-0.75,0.818h-13.218c-0.415,0-0.751-0.367-0.751-0.818v-5.304
		c0-0.452,0.336-0.818,0.751-0.818h13.218c0.414,0,0.75,0.366,0.75,0.818V67.567z"/>
	<ellipse fill="#DDDDDC" cx="243.72" cy="64.915" rx="4.74" ry="3.471"/>
</g>
<path fill="#DDDDDC" d="M198.562,64.915c0,1.916,1.787,3.471,3.991,3.471h19.767c2.204,0,3.991-1.555,3.991-3.471l0,0
	c0-1.916-1.787-3.47-3.991-3.47h-19.767C200.349,61.445,198.562,62.999,198.562,64.915L198.562,64.915z"/>
<ellipse fill="#020202" cx="244.47" cy="64.915" rx="2.063" ry="1.979"/>
<ellipse fill="#020202" cx="238.954" cy="64.915" rx="2.063" ry="1.979"/>
<ellipse fill="#020202" cx="221.187" cy="64.915" rx="2.063" ry="1.979"/>
<ellipse fill="#020202" cx="215.354" cy="64.915" rx="2.063" ry="1.979"/>
<ellipse fill="#020202" cx="209.812" cy="64.915" rx="2.063" ry="1.979"/>
<ellipse fill="#020202" cx="233.438" cy="64.915" rx="2.063" ry="1.979"/>
<ellipse fill="#020202" cx="204.084" cy="64.915" rx="2.063" ry="1.979"/>
<line fill="none" stroke="#A0A09F" stroke-miterlimit="10" x1="32.125" y1="78.831" x2="111.125" y2="78.831"/>
<line fill="none" stroke="#A0A09F" stroke-miterlimit="10" x1="183" y1="78.831" x2="262" y2="78.831"/>
<line fill="#CECECD" stroke="#DDDDDC" stroke-miterlimit="10" x1="32.5" y1="51.04" x2="111.125" y2="51.04"/>
<line fill="#CECECD" stroke="#DDDDDC" stroke-miterlimit="10" x1="185.291" y1="51.04" x2="261" y2="51.04"/>
</svg>
